# xmcd
#
# Track frame offsets:
#	150
#	17147
#	31296
#	49571
#	68323
#	83781
#	95765
#	108049
#	119732
#	139099
#	152406
#	162181
#	179976
#	193834
#	207102
#	222817
#	239962
#	265664
#
# Disc length: 3550 seconds
#
# Revision: 0
# Processed by: cddbd v1.5.2PL0 Copyright (c) Steve Scherf et al.
# Submitted via: audiograbber 1.83.01
#
DISCID=fc0ddc12
DTITLE=Stardust - Stardust 075
DYEAR=2008
DGENRE=Country
TTITLE0=Cowboy´s Girl  - Boggy Branch Band
TTITLE1=My World Will Fall Apart  - Bill Foster
TTITLE2=If I Could Be A Kid Again  - Kenton Koty
TTITLE3=Old Lonesome Train  - Hank Newman
TTITLE4=Boy´s Night Out - Carmine Dio
TTITLE5=Just Making Love  - Jerri Arnold
TTITLE6=A Good Hearted Woman - Beau Renfro and Rick Skinner
TTITLE7=Each Moment Spent With You  - Ernie Ashworth 
TTITLE8=Round Abouit Midnight  - Danny Grae
TTITLE9=I Forgot Your Leaving  - Carmine Dio
TTITLE10=You Walk By - Buster Doss
TTITLE11=Don´t Leave Me Here  - Rooster Quantrell
TTITLE12=Cowboy Rock ´n´ Roll  - Deby Kelly
TTITLE13=Sweet Memories  - Jack Blanchard and Misty Morgan
TTITLE14=Born To Late - Mayf Nutter
TTITLE15=Cowboy´s Dream  - Brazograss
TTITLE16=He Tuched Me  - Clear Creek Revival
TTITLE17=Data Track
EXTD=
EXTT0=
EXTT1=
EXTT2=
EXTT3=
EXTT4=
EXTT5=
EXTT6=
EXTT7=
EXTT8=
EXTT9=
EXTT10=
EXTT11=
EXTT12=
EXTT13=
EXTT14=
EXTT15=
EXTT16=
EXTT17=
PLAYORDER=
